<svg xmlns="http://www.w3.org/2000/svg" width="110.56" height="37" viewBox="0 0 110.56 37">
  <g id="Group_40" data-name="Group 40" transform="translate(551 -1674)">
    <g id="Group_39" data-name="Group 39" transform="translate(12 -19)" opacity="0.6">
      <rect id="Rectangle_27" data-name="Rectangle 27" width="3" height="15" rx="1" transform="translate(-563 1704)" fill="#22a59c"/>
      <rect id="Rectangle_28" data-name="Rectangle 28" width="3" height="26" rx="1" transform="translate(-558 1698)" fill="#22a59c"/>
      <rect id="Rectangle_29" data-name="Rectangle 29" width="3" height="37" rx="1" transform="translate(-553 1693)" fill="#22a59c"/>
    </g>
    <path id="Intersection_2" data-name="Intersection 2" d="M15.82,32.2V16.02h1.82v2.8a4.116,4.116,0,0,1,1.53-2.13,4.472,4.472,0,0,1,2.71-.81,4.973,4.973,0,0,1,2.6.68,4.7,4.7,0,0,1,1.79,1.96,6.548,6.548,0,0,1,.65,3,6.485,6.485,0,0,1-.65,2.99,4.71,4.71,0,0,1-1.79,1.95,4.973,4.973,0,0,1-2.6.68,4.472,4.472,0,0,1-2.71-.81,4.116,4.116,0,0,1-1.53-2.13v8Zm3.62-14.21A3.381,3.381,0,0,0,18.1,19.4a4.52,4.52,0,0,0-.48,2.12,4.467,4.467,0,0,0,.48,2.11,3.46,3.46,0,0,0,1.34,1.409,3.744,3.744,0,0,0,1.92.5,3.55,3.55,0,0,0,2.71-1.07,4.123,4.123,0,0,0,1.011-2.95,4.124,4.124,0,0,0-1.011-2.95,3.55,3.55,0,0,0-2.71-1.07A3.809,3.809,0,0,0,19.44,17.99ZM77.98,26.2a3.751,3.751,0,0,1-1.46-2.62h1.76a2.291,2.291,0,0,0,.869,1.62,3.143,3.143,0,0,0,2.03.62,2.111,2.111,0,0,0,1.47-.48,1.62,1.62,0,0,0,.53-1.26,1.381,1.381,0,0,0-.38-1.021,2.5,2.5,0,0,0-.94-.58,13.8,13.8,0,0,0-1.541-.42,15.061,15.061,0,0,1-1.949-.56,2.992,2.992,0,0,1-1.24-.89,2.491,2.491,0,0,1-.51-1.65,2.761,2.761,0,0,1,1.021-2.23,4.207,4.207,0,0,1,2.78-.851,4.435,4.435,0,0,1,2.99.97,4.087,4.087,0,0,1,1.37,2.61H83.04a2.521,2.521,0,0,0-.81-1.61,2.642,2.642,0,0,0-1.85-.63,2.279,2.279,0,0,0-1.53.471,1.585,1.585,0,0,0-.55,1.27,1.311,1.311,0,0,0,.37.969,2.37,2.37,0,0,0,.92.561,15.629,15.629,0,0,0,1.51.41,14.886,14.886,0,0,1,1.97.571,3.073,3.073,0,0,1,1.28.93,2.611,2.611,0,0,1,.53,1.72,2.7,2.7,0,0,1-1.01,2.18,4.074,4.074,0,0,1-2.69.841A5.156,5.156,0,0,1,77.98,26.2Zm-11.419.26a4.806,4.806,0,0,1-1.911-1.95,6.169,6.169,0,0,1-.689-2.99,6.229,6.229,0,0,1,.689-3,4.792,4.792,0,0,1,1.911-1.96,5.648,5.648,0,0,1,2.8-.68,5.526,5.526,0,0,1,2.79.68,4.69,4.69,0,0,1,1.82,1.82,5.121,5.121,0,0,1,.63,2.52,5.435,5.435,0,0,1-.08,1H65.74a3.853,3.853,0,0,0,1.07,2.821,3.493,3.493,0,0,0,2.471.94,3.569,3.569,0,0,0,2.209-.67,2.77,2.77,0,0,0,1.09-1.79h1.94a4.586,4.586,0,0,1-2.68,3.44,5.932,5.932,0,0,1-2.479.5A5.648,5.648,0,0,1,66.56,26.46Zm.28-8.17a3.75,3.75,0,0,0-1.1,2.731h7.02a3.729,3.729,0,0,0-.4-2.04,2.925,2.925,0,0,0-1.26-1.22,3.84,3.84,0,0,0-1.74-.4A3.6,3.6,0,0,0,66.84,18.29ZM31.45,26.46a4.951,4.951,0,0,1-1.969-1.95,5.954,5.954,0,0,1-.72-2.99,6.011,6.011,0,0,1,.72-3,4.936,4.936,0,0,1,1.969-1.96,6.226,6.226,0,0,1,5.66,0,4.87,4.87,0,0,1,1.96,1.96,6.084,6.084,0,0,1,.71,3,6.026,6.026,0,0,1-.71,2.99,4.884,4.884,0,0,1-1.96,1.95,6.226,6.226,0,0,1-5.66,0Zm1.021-8.54a3.309,3.309,0,0,0-1.34,1.35,4.546,4.546,0,0,0-.51,2.25,4.5,4.5,0,0,0,.51,2.23,3.309,3.309,0,0,0,1.34,1.35,3.942,3.942,0,0,0,3.62,0,3.309,3.309,0,0,0,1.34-1.35,4.5,4.5,0,0,0,.51-2.23,4.546,4.546,0,0,0-.51-2.25,3.309,3.309,0,0,0-1.34-1.35,3.942,3.942,0,0,0-3.62,0ZM6.53,26.63a4.428,4.428,0,0,1-1.741-1.4A3.963,3.963,0,0,1,4.04,23.2H5.98a2.755,2.755,0,0,0,.41,1.17,2.725,2.725,0,0,0,1,.94,3.129,3.129,0,0,0,1.571.37,2.491,2.491,0,0,0,1.84-.64,2.22,2.22,0,0,0,.64-1.64,2.117,2.117,0,0,0-.45-1.4,3.186,3.186,0,0,0-1.11-.85,14.966,14.966,0,0,0-1.8-.67,18.161,18.161,0,0,1-2.15-.831,3.667,3.667,0,0,1-1.38-1.17,3.4,3.4,0,0,1-.571-2.06,3.562,3.562,0,0,1,.53-1.939,3.482,3.482,0,0,1,1.52-1.3,5.491,5.491,0,0,1,2.33-.46,5.014,5.014,0,0,1,3.3,1.011A3.866,3.866,0,0,1,13.08,16.3H11.12a2.651,2.651,0,0,0-.86-1.48,2.709,2.709,0,0,0-1.9-.64,2.6,2.6,0,0,0-1.76.57,2.011,2.011,0,0,0-.66,1.61,1.993,1.993,0,0,0,.43,1.33,2.987,2.987,0,0,0,1.07.8,17.262,17.262,0,0,0,1.76.651,17.9,17.9,0,0,1,2.191.84A3.7,3.7,0,0,1,12.8,21.19a3.616,3.616,0,0,1,.581,2.15A3.751,3.751,0,0,1,12.9,25.2a3.61,3.61,0,0,1-1.46,1.4,4.958,4.958,0,0,1-2.42.54A5.8,5.8,0,0,1,6.53,26.63ZM91.2,27a3.491,3.491,0,0,1-2.51-.8,3.615,3.615,0,0,1-.83-2.68V17.6H86.22V16.02h1.64V13.28H89.7v2.74h2.84V17.6H89.7v5.96a2.053,2.053,0,0,0,.39,1.45,1.877,1.877,0,0,0,1.35.39h1.12V27ZM54.36,27V12.9h7.98V14.38H56.18v4.88H61.4v1.42H56.18V27Zm-4.74,0V16.02H51.44V27ZM46.04,27a3.489,3.489,0,0,1-2.51-.8,3.612,3.612,0,0,1-.831-2.68V17.6H41.06V16.02H42.7V13.28h1.84v2.74h2.84V17.6H44.54v5.96a2.053,2.053,0,0,0,.39,1.45,1.877,1.877,0,0,0,1.35.39H47.4V27Zm3.6-13.39a1.134,1.134,0,0,1,0-1.62,1.463,1.463,0,0,1,1.8,0,1.136,1.136,0,0,1,0,1.62,1.46,1.46,0,0,1-1.8,0Z" transform="translate(-533 1671)" fill="#22a59c"/>
  </g>
</svg>
