<svg xmlns="http://www.w3.org/2000/svg" xmlns:xlink="http://www.w3.org/1999/xlink" width="114.856" height="37" viewBox="0 0 114.856 37"><defs><linearGradient id="a" x1="0.5" y1="0.54" x2="0.5" y2="1" gradientUnits="objectBoundingBox"><stop offset="0" stop-color="#22a59c"/><stop offset="1" stop-color="#2278a5"/></linearGradient></defs><g transform="translate(-96 -1683)"><g transform="translate(760.856 -10)"><rect width="3" height="15" rx="1" transform="translate(-563 1704)" fill="url(#a)"/><rect width="3" height="26" rx="1" transform="translate(-558 1698)" fill="url(#a)"/><rect width="3" height="37" rx="1" transform="translate(-553 1693)" fill="url(#a)"/></g><path d="M64.376,31.02V25.452a6.623,6.623,0,0,1-.786.714,4.858,4.858,0,0,1-.882.54,5.015,5.015,0,0,1-1,.348,4.918,4.918,0,0,1-1.14.126,4.075,4.075,0,0,1-1.848-.42,4.12,4.12,0,0,1-1.446-1.218,5.844,5.844,0,0,1-.936-1.974,9.988,9.988,0,0,1-.329-2.688,8.383,8.383,0,0,1,.372-2.544A6.172,6.172,0,0,1,57.452,16.3a4.978,4.978,0,0,1,1.668-1.35A4.816,4.816,0,0,1,61.3,14.46a4.972,4.972,0,0,1,1.049.1,3.921,3.921,0,0,1,1.615.75,5.815,5.815,0,0,1,.648.6l.156-.684a.614.614,0,0,1,.264-.408.886.886,0,0,1,.492-.132H67.34V31.02ZM60.782,16.968a2.381,2.381,0,0,0-.924.762,3.734,3.734,0,0,0-.582,1.3,7.446,7.446,0,0,0-.2,1.854,8.22,8.22,0,0,0,.174,1.83,3.6,3.6,0,0,0,.5,1.224,1.9,1.9,0,0,0,.792.684,2.519,2.519,0,0,0,1.044.211,3.036,3.036,0,0,0,1.572-.384,4.672,4.672,0,0,0,1.224-1.092V17.832a2.921,2.921,0,0,0-1.1-.864A3.248,3.248,0,0,0,62,16.716,2.878,2.878,0,0,0,60.782,16.968ZM86.048,26.76A4.12,4.12,0,0,1,84.6,25.542a5.844,5.844,0,0,1-.936-1.974,9.988,9.988,0,0,1-.329-2.688,8.383,8.383,0,0,1,.372-2.544A6.172,6.172,0,0,1,84.776,16.3a4.978,4.978,0,0,1,1.668-1.35,4.817,4.817,0,0,1,2.184-.486,4.283,4.283,0,0,1,1.764.329,4.635,4.635,0,0,1,1.308.882v-6.5h2.964V27H92.852a.728.728,0,0,1-.756-.54l-.24-1.188a7.352,7.352,0,0,1-.8.78,5.085,5.085,0,0,1-.906.6,4.731,4.731,0,0,1-1.044.391,5.023,5.023,0,0,1-1.206.138A4.075,4.075,0,0,1,86.048,26.76Zm2.058-9.792a2.381,2.381,0,0,0-.924.762,3.734,3.734,0,0,0-.582,1.3,7.446,7.446,0,0,0-.2,1.854,8.22,8.22,0,0,0,.174,1.83,3.6,3.6,0,0,0,.5,1.224,1.9,1.9,0,0,0,.792.684,2.519,2.519,0,0,0,1.044.211,3.036,3.036,0,0,0,1.572-.384A4.672,4.672,0,0,0,91.7,23.352V17.832a2.921,2.921,0,0,0-1.1-.864,3.248,3.248,0,0,0-1.278-.252A2.878,2.878,0,0,0,88.106,16.968ZM46.88,26.754a5.354,5.354,0,0,1-1.92-1.26,5.915,5.915,0,0,1-1.284-2.065,7.977,7.977,0,0,1-.468-2.849,6.824,6.824,0,0,1,.408-2.371,5.7,5.7,0,0,1,1.17-1.931,5.522,5.522,0,0,1,1.86-1.3,6.118,6.118,0,0,1,2.478-.48,5.969,5.969,0,0,1,2.142.372,4.7,4.7,0,0,1,1.687,1.086,4.959,4.959,0,0,1,1.1,1.751,6.606,6.606,0,0,1,.4,2.371,4.335,4.335,0,0,1-.03.558.884.884,0,0,1-.108.347.437.437,0,0,1-.21.18.9.9,0,0,1-.337.054H46.16A4.241,4.241,0,0,0,47.18,24a3.183,3.183,0,0,0,2.353.887,4.09,4.09,0,0,0,1.242-.167,5.9,5.9,0,0,0,.912-.373q.39-.2.684-.372a1.153,1.153,0,0,1,.57-.168.646.646,0,0,1,.312.072.691.691,0,0,1,.228.2l.864,1.08a4.928,4.928,0,0,1-1.1.966,6.242,6.242,0,0,1-1.278.625,7.013,7.013,0,0,1-1.356.329,9.729,9.729,0,0,1-1.338.1A6.587,6.587,0,0,1,46.88,26.754Zm.276-9.4a3.6,3.6,0,0,0-.936,2.076h5.567a3.712,3.712,0,0,0-.156-1.086,2.5,2.5,0,0,0-.48-.894,2.278,2.278,0,0,0-.816-.607,2.787,2.787,0,0,0-1.152-.221A2.74,2.74,0,0,0,47.156,17.352Zm-13.1,9.4a5.365,5.365,0,0,1-1.921-1.26,5.913,5.913,0,0,1-1.283-2.065,7.977,7.977,0,0,1-.468-2.849,6.824,6.824,0,0,1,.408-2.371,5.688,5.688,0,0,1,1.17-1.931,5.5,5.5,0,0,1,1.86-1.3A6.118,6.118,0,0,1,36.3,14.5a5.972,5.972,0,0,1,2.142.372,4.694,4.694,0,0,1,1.686,1.086,4.948,4.948,0,0,1,1.1,1.751,6.625,6.625,0,0,1,.4,2.371,4.336,4.336,0,0,1-.03.558.914.914,0,0,1-.108.347.435.435,0,0,1-.211.18.9.9,0,0,1-.336.054H33.332A4.236,4.236,0,0,0,34.352,24a3.182,3.182,0,0,0,2.352.887,4.082,4.082,0,0,0,1.242-.167,5.881,5.881,0,0,0,.913-.373c.259-.136.488-.26.684-.372a1.148,1.148,0,0,1,.57-.168.648.648,0,0,1,.312.072.7.7,0,0,1,.228.2l.864,1.08a4.933,4.933,0,0,1-1.1.966,6.2,6.2,0,0,1-1.278.625,6.989,6.989,0,0,1-1.355.329,9.739,9.739,0,0,1-1.338.1A6.584,6.584,0,0,1,34.052,26.754Zm.275-9.4a3.611,3.611,0,0,0-.936,2.076H38.96a3.712,3.712,0,0,0-.156-1.086,2.506,2.506,0,0,0-.481-.894,2.274,2.274,0,0,0-.815-.607,2.79,2.79,0,0,0-1.152-.221A2.743,2.743,0,0,0,34.328,17.352ZM78.308,27V19.164a2.629,2.629,0,0,0-.522-1.746A1.938,1.938,0,0,0,76.22,16.8a3.1,3.1,0,0,0-1.44.347,5.144,5.144,0,0,0-1.272.949V27H70.544V14.688h1.813a.729.729,0,0,1,.756.54l.2.972a6.79,6.79,0,0,1,.787-.7,5.482,5.482,0,0,1,.876-.54,4.462,4.462,0,0,1,.99-.348,5.192,5.192,0,0,1,1.152-.12,4.405,4.405,0,0,1,1.788.342,3.535,3.535,0,0,1,1.3.959A4.221,4.221,0,0,1,81,17.274a6.276,6.276,0,0,1,.27,1.89V27Zm-56.64,0L17.876,15.144c-.048-.152-.1-.316-.149-.492s-.1-.364-.15-.564c-.048.2-.1.388-.15.564s-.1.34-.149.492L13.448,27H10.532L5.144,9.648H7.856a1.19,1.19,0,0,1,.7.2.952.952,0,0,1,.378.534L11.888,20.76q.108.383.2.833t.174.954q.1-.5.211-.954t.246-.833L16.124,10.38a1.137,1.137,0,0,1,.378-.5,1.059,1.059,0,0,1,.689-.228h.949a1.162,1.162,0,0,1,.7.2,1.027,1.027,0,0,1,.384.534L22.6,20.76a13.831,13.831,0,0,1,.455,1.7q.084-.468.175-.9t.185-.8L26.372,10.38a.965.965,0,0,1,.373-.516,1.126,1.126,0,0,1,.7-.216h2.532L24.584,27Z" transform="translate(90.856 1682)" fill="#22a59c"/></g></svg>