<svg xmlns="http://www.w3.org/2000/svg" width="19" height="19.533" viewBox="0 0 19 19.533"><path d="M20.165,13.724a6.734,6.734,0,0,0,0-1.914L22.225,10.2a.493.493,0,0,0,.117-.625L20.389,6.194a.491.491,0,0,0-.6-.215l-2.432.977A7.136,7.136,0,0,0,15.711,6L15.34,3.41A.476.476,0,0,0,14.861,3H10.955a.476.476,0,0,0-.479.41L10.105,6a7.5,7.5,0,0,0-1.651.957L6.023,5.979a.476.476,0,0,0-.6.215L3.474,9.573a.481.481,0,0,0,.117.625l2.061,1.611a7.745,7.745,0,0,0-.068.957,7.745,7.745,0,0,0,.068.957L3.591,15.335a.493.493,0,0,0-.117.625l1.953,3.379a.491.491,0,0,0,.6.215l2.432-.977a7.135,7.135,0,0,0,1.651.957l.371,2.588a.476.476,0,0,0,.479.41h3.907a.476.476,0,0,0,.479-.41l.371-2.588a7.5,7.5,0,0,0,1.651-.957l2.432.977a.476.476,0,0,0,.6-.215l1.953-3.379a.493.493,0,0,0-.117-.625l-2.061-1.611Zm-7.257,2.461a3.418,3.418,0,1,1,3.418-3.418A3.422,3.422,0,0,1,12.908,16.185Z" transform="translate(-3.406 -3)" fill="#d8d8d8"/></svg>