<svg xmlns="http://www.w3.org/2000/svg" width="38.73" height="42.861" viewBox="0 0 38.73 42.861">
  <path id="Icon_material-share" data-name="Icon material-share" d="M36.775,33.3a6.266,6.266,0,0,0-4.217,1.657L17.216,26.023a7.044,7.044,0,0,0,.194-1.506,7.044,7.044,0,0,0-.194-1.506l15.169-8.843A6.441,6.441,0,1,0,30.32,9.455a7.044,7.044,0,0,0,.194,1.506L15.344,19.8a6.455,6.455,0,1,0,0,9.424l15.32,8.951a6.07,6.07,0,0,0-.172,1.4A6.283,6.283,0,1,0,36.775,33.3Z" transform="translate(-4.5 -3)" fill="#d8d8d8"/>
</svg>
